<?xml version="1.0" standalone="no"?>
<!DOCTYPE svg PUBLIC "-//W3C//DTD SVG 20010904//EN"
        "http://www.w3.org/TR/2001/REC-SVG-20010904/DTD/svg10.dtd">
<svg version="1.0" xmlns="http://www.w3.org/2000/svg"
     width="159.000000pt" height="159.000000pt" viewBox="0 0 159.000000 159.000000"
     preserveAspectRatio="xMidYMid meet">
    <metadata>
        Created by potrace 1.11, written by Peter Selinger 2001-2013
    </metadata>
    <g transform="translate(0.000000,159.000000) scale(0.100000,-0.100000)"
       fill="#000000" stroke="none">
        <path d="M396 1491 c-2 -3 -3 -319 -2 -701 l1 -695 205 0 205 0 3 144 3 143
379 377 c209 208 380 381 380 387 0 11 -335 344 -346 344 -5 0 -100 -91 -211
-202 l-202 -202 -206 205 c-113 113 -207 203 -209 200z"/>
        <path d="M186 1306 c-82 -83 -151 -156 -153 -162 -3 -9 190 -207 311 -322 2
-1 3 142 2 318 0 176 -3 320 -6 319 -3 -1 -72 -69 -154 -153z"/>
        <path d="M1042 547 l-192 -192 0 -133 0 -132 193 0 193 0 0 325 c0 179 0 325
0 325 -1 0 -88 -87 -194 -193z"/>
    </g>
</svg>
